<?xml version="1.0" encoding="UTF-8"?>
<svg width="38px" height="59px" viewBox="0 0 38 59" version="1.1" xmlns="http://www.w3.org/2000/svg" xmlns:xlink="http://www.w3.org/1999/xlink">
    <!-- Generator: Sketch 43.2 (39069) - http://www.bohemiancoding.com/sketch -->
    <title>fire</title>
    <desc>Created with Sketch.</desc>
    <defs></defs>
    <g id="Page-1" stroke="none" stroke-width="1" fill="none" fill-rule="evenodd">
        <g id="Step1" transform="translate(-714.000000, -128.000000)" fill-rule="nonzero">
            <g id="tile-header" transform="translate(668.000000, 128.000000)">
                <g id="fire" transform="translate(46.000000, 0.000000)">
                    <path d="M0.0122304403,40.7252963 C0.0122304403,50.8182066 8.45966491,59 18.88,59 L18.88,59 C29.3003351,59 37.7477696,50.8182066 37.7477696,40.7252963 C37.7477696,30.5726959 32.5067291,22.4505926 36.0231587,15.3437953 C36.0231587,15.3437953 30.4102179,16.3591014 27.2656886,24.4810897 C27.2656886,24.4810897 16.7836075,14.3284893 21.1630551,0.114894737 C21.1630551,0.114894737 10.4944302,4.17588889 11.6101313,17.3742924 C12.5669555,28.6919415 10.4944302,30.5726959 10.4944302,30.5726959 C10.4944302,21.4354016 3.11876226,17.3742924 3.11876226,17.3742924 C5.25327094,28.5421988 0.0122304403,31.5880019 0.0122304403,40.7252963 Z" id="Shape" fill="#053391"></path>
                    <path d="M32.4992483,45.0532281 C32.4992483,52.6545673 26.4394808,59.1437622 18.5928815,58.9971248 C11.2085454,58.8593431 5.71446541,53.4175419 6.30164528,46.3091345 C6.56370918,43.1364756 9.05313811,37.9966901 13.1149504,32.7935341 L15.8228649,34.3798635 C15.7353519,27.9500136 18.88,19.4049045 18.88,19.4049045 C20.9456382,28.4082125 32.4992483,30.7418752 32.4992483,45.0532281 Z" id="Shape" fill="#2297F0"></path>
                    <path d="M13.6389595,38.6947992 C12.5907039,44.7864055 10.4943114,47.0041384 10.4943114,50.8778967 C10.4943114,54.9390058 14.2488191,59 18.88,59 L18.88,59 C23.5446662,59 27.2785127,55.3085322 27.2655698,50.7904893 C27.2305409,38.6560409 19.9282556,32.603308 19.9282556,32.603308 C20.9765112,38.6949142 17.8318631,41.7406023 17.8318631,41.7406023 C16.5218999,39.8376511 13.6389595,38.6947992 13.6389595,38.6947992 Z" id="Shape" fill="#F2CA14"></path>
                </g>
            </g>
        </g>
    </g>
</svg>