<?xml version="1.0" encoding="UTF-8"?>
<svg width="16px" height="16px" viewBox="0 0 16 16" version="1.1" xmlns="http://www.w3.org/2000/svg" xmlns:xlink="http://www.w3.org/1999/xlink">
    <!-- Generator: Sketch 43.2 (39069) - http://www.bohemiancoding.com/sketch -->
    <title>Combined Shape Copy 2</title>
    <desc>Created with Sketch.</desc>
    <defs></defs>
    <g id="Page-1" stroke="none" stroke-width="1" fill="none" fill-rule="evenodd">
        <g id="Settings" transform="translate(-1172.000000, -436.000000)" fill="#2091EB">
            <g id="add" transform="translate(1092.000000, 386.000000)">
                <path d="M86.4,56.4 L81.5926361,56.4 C80.7081449,56.4 80,57.1163444 80,58 C80,58.8898163 80.7130475,59.6 81.5926361,59.6 L86.4,59.6 L86.4,64.4073639 C86.4,65.2918551 87.1163444,66 88,66 C88.8898163,66 89.6,65.2869525 89.6,64.4073639 L89.6,59.6 L94.4073639,59.6 C95.2918551,59.6 96,58.8836556 96,58 C96,57.1101837 95.2869525,56.4 94.4073639,56.4 L89.6,56.4 L89.6,51.5926361 C89.6,50.7081449 88.8836556,50 88,50 C87.1101837,50 86.4,50.7130475 86.4,51.5926361 L86.4,56.4 Z" id="Combined-Shape-Copy-2"></path>
            </g>
        </g>
    </g>
</svg>